# xmcd CD database file
#
# Track frame offsets:
#	150
#	27819
#	53372
#	79569
#	100652
#	106541
#	133748
#	164729
#	191910
#	219566
#	235192
#	243774
#
# Disc length: 3554 seconds
#
# Revision: 0
# Processed by: cddbd v1.5.2PL0 Copyright (c) Steve Scherf et al.
# Submitted via: CDex 1.70beta2
#
DISCID=900de00c
DTITLE=Gaetano Partipilo - The Right Place
DYEAR=2007
DGENRE=Jazz
TTITLE0=110.0 FM
TTITLE1=New York Meeting
TTITLE2=Syntax Error
TTITLE3=Red Over Blue
TTITLE4=Italian Coffee Break
TTITLE5=Listening At -3
TTITLE6=The Scientist
TTITLE7=Quantum
TTITLE8=Ballad For A Child
TTITLE9=Music Home
TTITLE10=All The Things You Were
TTITLE11=Sleeping Art Afternoon
EXTD=YEAR: 2007
EXTT0=
EXTT1=
EXTT2=
EXTT3=
EXTT4=
EXTT5=
EXTT6=
EXTT7=
EXTT8=
EXTT9=
EXTT10=
EXTT11=
PLAYORDER=
